# xmcd
#
# Track frame offsets:
#	150
#	17189
#	41902
#	57566
#	69183
#	82195
#	103820
#	119581
#	140704
#	162992
#	187118
#	202575
#	214342
#	224095
#	241948
#
# Disc length: 3358 seconds
#
# Revision: 0
# Processed by: cddbd v1.5.2PL0 Copyright (c) Steve Scherf et al.
# Submitted via: EasyCDDAExtractor 16.0.6.1
#
DISCID=f00d1c0f
DTITLE=Άνευ ερμηνευτού - Τα χάλκινα της Γουμένισσας 2
DYEAR=2004
DGENRE=Παραδοσιακή
TTITLE0=Συρτό Γουμένισσας [παραδοσιακό]
TTITLE1=Τικφέσκου [παραδοσιακό]
TTITLE2=Τριταπάτα [παραδοσιακό]
TTITLE3=Μπαϊντούσκα [παραδοσιακό]
TTITLE4=Κόρη Ελένη [παραδοσιακό]
TTITLE5=Μολάεβο [παραδοσιακό]
TTITLE6=Ζάϊκος [παραδοσιακό]
TTITLE7=Στανγκάϊνα [παραδοσιακό]
TTITLE8=Γκάϊντα [παραδοσιακό]
TTITLE9=Πουστσένο [παραδοσιακό]
TTITLE10=Ζαράμο [παραδοσιακό]
TTITLE11=Αλωνιώτικος [παραδοσιακό]
TTITLE12=Συμπεθέρα [παραδοσιακό]
TTITLE13=Μπουσνίτσα [παραδοσιακό]
TTITLE14=Τσουράπια [παραδοσιακό]
EXTD=
EXTT0=
EXTT1=
EXTT2=
EXTT3=
EXTT4=
EXTT5=
EXTT6=
EXTT7=
EXTT8=
EXTT9=
EXTT10=
EXTT11=
EXTT12=
EXTT13=
EXTT14=
PLAYORDER=
